<svg width="24" height="24" viewBox="0 0 24 24" fill="none" xmlns="http://www.w3.org/2000/svg">
<circle cx="12" cy="12" r="12" fill="#3981F7"/>
<g clip-path="url(#clip0_831_7806)">
<path d="M15.1675 13.7194C15.1675 11.9302 13.9066 11.4172 12.5425 11.1285L11.8195 10.982C10.7504 10.7719 10.6679 10.4617 10.6679 10.0466C10.6679 9.50791 11.1534 9.18598 11.9665 9.18598C12.9295 9.18598 13.1763 9.66973 13.2787 10.0331L13.2884 10.0633C13.4095 10.3802 13.691 10.5692 14.0422 10.5692C14.1331 10.5692 14.2149 10.5553 14.276 10.5429C14.6529 10.4679 14.9154 10.1679 14.9154 9.8126C14.9154 9.72448 14.8994 9.6371 14.8674 9.55216C14.6742 8.93116 14.1316 7.95373 12.628 7.7306V6.6656C12.628 5.77854 11.2387 5.77854 11.2387 6.6656V7.73698C9.62355 7.98973 9.0288 9.08848 9.0288 10.0462C9.0288 11.7889 10.2423 12.2747 11.4277 12.5192L12.2097 12.6853C13.3235 12.9118 13.5198 13.2022 13.5198 13.7284C13.5198 14.3713 12.9762 14.7545 12.065 14.7545C10.882 14.7545 10.6409 14.2219 10.4797 13.6239C10.3854 13.293 10.0863 13.0798 9.71748 13.0798C9.63705 13.0798 9.57255 13.0905 9.49473 13.1038L9.4713 13.1083C9.08992 13.1989 8.83398 13.4992 8.83398 13.8553C8.83398 13.923 8.84598 13.9805 8.85573 14.027L8.86773 14.0803C9.0393 14.6602 9.41805 15.9268 11.3071 16.2094V17.324C11.3071 17.7679 11.6562 18.0002 12.0016 18.0002C12.347 18.0002 12.6965 17.7679 12.6965 17.324V16.2289C14.1965 16.0335 15.169 15.0752 15.169 13.7195" fill="#EBF3FF"/>
</g>
<defs>
<clipPath id="clip0_831_7806">
<rect width="12" height="12" fill="white" transform="translate(6 6)"/>
</clipPath>
</defs>
</svg>
