<svg width="24" height="24" viewBox="0 0 24 24" fill="none" xmlns="http://www.w3.org/2000/svg">
<rect x="1.5" y="1.68628" width="21" height="20.8261" rx="6" fill="#CCE1FF"/>
<path d="M14.6693 0H9.34232C8.16359 0 7.2002 0.850769 7.2002 1.9041V2.85615C7.2002 3.90948 8.15225 4.76025 9.33099 4.76025H14.6693C15.848 4.76025 16.8001 3.90948 16.8001 2.85615V1.9041C16.8114 0.850769 15.848 0 14.6693 0Z" fill="#93BAFB"/>
<path d="M8.99894 16.6927C8.99894 15.6281 8.10325 15.3229 7.13431 15.1511L6.62074 15.0639C5.86131 14.9389 5.80271 14.7543 5.80271 14.5073C5.80271 14.1868 6.14753 13.9952 6.72516 13.9952C7.40921 13.9952 7.58449 14.2831 7.65721 14.4993L7.66413 14.5172C7.75017 14.7058 7.95008 14.8183 8.19954 14.8183C8.26414 14.8183 8.32221 14.81 8.36563 14.8026C8.63334 14.758 8.8198 14.5795 8.8198 14.3681C8.8198 14.3156 8.80848 14.2636 8.7857 14.2131C8.64852 13.8436 8.26307 13.262 7.19505 13.1292V12.4955C7.19505 11.9677 6.20813 11.9677 6.20813 12.4955V13.133C5.06085 13.2834 4.63838 13.9372 4.63838 14.5071C4.63838 15.544 5.50037 15.8331 6.34238 15.9786L6.8979 16.0774C7.68904 16.2122 7.82848 16.385 7.82848 16.6981C7.82848 17.0807 7.44237 17.3087 6.79508 17.3087C5.95481 17.3087 5.78353 16.9917 5.66899 16.636C5.60199 16.439 5.38956 16.3122 5.12758 16.3122C5.07044 16.3122 5.02462 16.3185 4.96935 16.3265L4.9527 16.3291C4.6818 16.383 4.5 16.5618 4.5 16.7736C4.5 16.8139 4.50852 16.8482 4.51545 16.8758L4.52397 16.9075C4.64584 17.2526 4.91488 18.0063 6.25674 18.1744V18.8377C6.25674 19.1018 6.50474 19.24 6.75007 19.24C6.9954 19.24 7.24366 19.1018 7.24366 18.8377V18.186C8.30916 18.0697 9 17.4995 9 16.6929" fill="#3981F7"/>
<rect x="11.0996" y="16.2645" width="8.4" height="2.23137" rx="1.11568" fill="#93BAFB"/>
</svg>
