<svg viewBox="0 0 113 32" fill="none" xmlns="http://www.w3.org/2000/svg">
<mask id="mask0_4230_428" style="mask-type:alpha" maskUnits="userSpaceOnUse" x="0" y="4" width="24" height="24">
<circle cx="12" cy="16" r="12" />
</mask>
<g mask="url(#mask0_4230_428)">
<circle cx="6.29253" cy="1.86896" r="9.9559" transform="rotate(-22 6.29253 1.86896)" />
<circle cx="17.7105" cy="30.1308" r="9.9559" transform="rotate(-22 17.7105 30.1308)" />
<circle cx="-2.12935" cy="21.7093" r="9.9559" transform="rotate(-22 -2.12935 21.7093)" />
<circle cx="25.8707" cy="9.64349" r="9.9559" transform="rotate(-22 25.8707 9.64349)" />
</g>
<path d="M40.88 18.952C44.384 18.952 46.688 16.576 46.688 13.192C46.688 9.76 44.408 7.456 40.88 7.456H33.944V25H37.016V18.952H40.88ZM40.28 10.192C42.32 10.192 43.472 11.248 43.472 13.168C43.472 15.088 42.344 16.216 40.232 16.216H37.016V10.192H40.28ZM51.4194 25.312C53.2674 25.312 54.8754 24.472 55.3794 23.248L55.5954 25H58.1634V17.8C58.1634 14.512 56.1954 12.784 53.0034 12.784C49.7874 12.784 47.6754 14.464 47.6754 17.032H50.1714C50.1714 15.784 51.1314 15.064 52.8594 15.064C54.3474 15.064 55.3074 15.712 55.3074 17.32V17.584L51.7554 17.848C48.9474 18.064 47.3634 19.432 47.3634 21.616C47.3634 23.848 48.8994 25.312 51.4194 25.312ZM52.3794 23.104C51.0594 23.104 50.3394 22.576 50.3394 21.496C50.3394 20.536 51.0354 19.936 52.8594 19.768L55.3314 19.576V20.2C55.3314 22.024 54.1794 23.104 52.3794 23.104ZM59.1997 30.496C59.8477 30.664 60.5677 30.76 61.3837 30.76C63.3277 30.76 64.5757 29.848 65.4637 27.64L71.2717 13.144H68.2477L65.0317 21.784L61.9837 13.144H58.8877L63.6637 25.504L63.3277 26.392C62.8237 27.784 62.1037 28.048 60.9517 28.048H59.1997V30.496ZM79.8948 13.096C79.4148 12.976 79.0068 12.928 78.5988 12.928C77.0148 12.928 75.8868 13.72 75.3828 14.896L75.2148 13.168H72.4548V25H75.3828V19.24C75.3828 16.936 76.7028 15.808 78.8148 15.808H79.8948V13.096ZM80.3023 19.048C80.3023 22.744 82.9663 25.288 86.6383 25.288C90.3103 25.288 92.9743 22.744 92.9743 19.048C92.9743 15.352 90.3103 12.808 86.6383 12.808C82.9663 12.808 80.3023 15.352 80.3023 19.048ZM83.2303 19.048C83.2303 16.888 84.6223 15.424 86.6383 15.424C88.6543 15.424 90.0463 16.888 90.0463 19.048C90.0463 21.208 88.6543 22.672 86.6383 22.672C84.6223 22.672 83.2303 21.208 83.2303 19.048ZM97.7671 25V7.144H94.8631V25H97.7671ZM105.663 25.312C108.759 25.312 110.919 23.752 111.423 21.16H108.711C108.375 22.288 107.319 22.912 105.711 22.912C103.767 22.912 102.663 21.856 102.447 19.768L111.375 19.744V18.856C111.375 15.16 109.119 12.784 105.567 12.784C102.087 12.784 99.6626 15.352 99.6626 19.072C99.6626 22.744 102.135 25.312 105.663 25.312ZM105.591 15.184C107.343 15.184 108.471 16.264 108.471 17.896H102.519C102.807 16.12 103.863 15.184 105.591 15.184Z" />
</svg>
