<svg width="24" height="24" viewBox="0 0 24 24" fill="none" xmlns="http://www.w3.org/2000/svg">
<path d="M13.3747 22.0957C14.0602 22.0066 14.6019 22.664 14.3696 23.3032C14.2481 23.6272 13.9661 23.8546 13.6161 23.9001C12.8107 24.0017 11.9971 24.0259 11.1869 23.9723C8.19786 23.7749 5.50859 22.5046 3.51637 20.5506C1.34392 18.4199 0 15.476 0 12.2251C0 8.97362 1.34392 6.03025 3.51637 3.8995C5.68883 1.76876 8.68982 0.450643 12.0049 0.450643C13.1543 0.450643 14.2744 0.612887 15.342 0.915337C16.2179 1.1632 17.0618 1.50886 17.8573 1.94554L17.6206 1.33783C17.4231 0.828588 17.6837 0.258857 18.2024 0.0647272C18.7216 -0.128934 19.3025 0.126624 19.5005 0.635864L20.5006 3.2027C20.5384 3.30036 20.5603 3.40319 20.5657 3.50749C20.6441 3.98578 20.3519 4.45986 19.8662 4.60428L17.1874 5.408C16.6572 5.56555 16.0974 5.27201 15.9368 4.75246C15.7761 4.2329 16.0754 3.68333 16.6051 3.52578L16.8255 3.45966C16.1906 3.12261 15.5206 2.85347 14.8271 2.65688C13.9393 2.40554 12.9927 2.2705 12.0049 2.2705C9.20234 2.2705 6.66462 3.38464 4.82826 5.1862C2.99143 6.9873 1.85548 9.47582 1.85548 12.2251C1.85548 14.9738 2.99143 17.4624 4.82826 19.2639C6.4925 20.8962 8.73237 21.9644 11.2237 22.1501C11.9361 22.2031 12.669 22.1857 13.3747 22.0957ZM10.1671 7.43605C10.1671 6.93384 10.5826 6.52636 11.0951 6.52636C11.6071 6.52636 12.0226 6.93384 12.0226 7.43605V12.9749L15.888 14.6414C16.3565 14.8435 16.5688 15.3799 16.3627 15.8395C16.1567 16.2985 15.6097 16.5072 15.1412 16.3051L10.7686 14.42C10.4172 14.2902 10.1671 13.9577 10.1671 13.568V7.43605ZM16.607 21.1232C15.8603 21.4978 15.9597 22.5721 16.7643 22.808C16.9972 22.8727 17.229 22.853 17.4461 22.7466C18.0447 22.4516 18.6193 22.1041 19.1581 21.714C19.4211 21.5217 19.5578 21.2188 19.5296 20.8986C19.4579 20.191 18.6365 19.8323 18.0528 20.2524C17.597 20.5825 17.1134 20.8738 16.607 21.1232ZM20.3916 17.8619C19.969 18.4799 20.4437 19.3108 21.203 19.278C21.4998 19.2625 21.7657 19.12 21.932 18.8761C22.3078 18.3294 22.6324 17.7568 22.9107 17.1566C23.1789 16.5639 22.7611 15.8999 22.0999 15.8723C21.7207 15.8601 21.3775 16.0678 21.2197 16.4068C20.984 16.9156 20.71 17.3986 20.3916 17.8619ZM22.0965 13.1952C22.063 13.5526 22.2399 13.8874 22.555 14.0688C23.1459 14.398 23.8745 14.0294 23.9439 13.3669C24.0074 12.7095 24.0175 12.0586 23.9716 11.3998C23.9486 11.0833 23.7622 10.8043 23.4753 10.6565C22.8318 10.3292 22.0693 10.8188 22.1204 11.5273C22.1596 12.0863 22.1505 12.6372 22.0965 13.1952ZM21.3277 8.30073C21.5357 8.77105 22.0936 8.98253 22.5684 8.76776C23.0259 8.56144 23.231 8.03579 23.0326 7.58188C22.7697 6.97745 22.4532 6.39647 22.0912 5.84315C21.6366 5.1576 20.5666 5.35736 20.4012 6.15967C20.3558 6.39553 20.3988 6.62577 20.5312 6.82881C20.8382 7.29866 21.1049 7.78727 21.3277 8.30073Z" fill="#3981F7"/>
</svg>
